<?xml version="1.0" encoding="UTF-8"?>
<svg width="14px" height="19px" viewBox="0 0 14 19" version="1.1" xmlns="http://www.w3.org/2000/svg" xmlns:xlink="http://www.w3.org/1999/xlink">
    <title>6623787E-65CD-4528-9D70-0E55D4C88D14</title>
    <g id="DARK" stroke="none" stroke-width="1" fill="none" fill-rule="evenodd">
        <g id="5.0" transform="translate(-297.000000, -838.000000)" fill="#FFFFFF" fill-rule="nonzero">
            <g id="Group-2-Copy" transform="translate(104.000000, 812.000000)">
                <g id="CTA-Copy-4" transform="translate(0.299989, -0.000000)">
                    <g id="Group" transform="translate(179.518849, 18.168503)">
                        <g id="Icon/energy">
                            <path d="M25.6077682,15.1203105 L20.7193956,15.1203105 L21.1637931,9.54656574 C21.1855899,9.22587967 20.9997581,8.92878496 20.707535,8.81713262 C20.4153119,8.70548028 20.0867197,8.80602432 19.9007686,9.06399043 L13.2815846,18.6913678 C13.1332249,18.9138803 13.1172762,19.2030898 13.2402165,19.4415243 C13.3631568,19.6799588 13.6045391,19.8279629 13.8663181,19.8254197 L18.8716375,19.8254197 L18.357072,25.5198083 C18.3284076,25.8502688 18.5211892,26.1585268 18.8248588,26.2678 L19.0587522,26.3160576 C19.2965614,26.3129608 19.5166631,26.1858072 19.6434858,25.9782549 L26.1925018,16.2543625 C26.3408614,16.0318499 26.3568101,15.7426404 26.2338699,15.5042059 C26.1519097,15.3452496 25.9432091,15.2172844 25.6077682,15.1203105 Z" id="Path"></path>
                        </g>
                    </g>
                </g>
            </g>
        </g>
    </g>
</svg>